<svg width="14" height="23" viewBox="0 0 14 23" fill="none" xmlns="http://www.w3.org/2000/svg">
    <path d="M13.0682 0.760801C13.3845 1.07725 13.5623 1.5064 13.5623 1.95386C13.5623 2.40133 13.3845 2.83047 13.0682 3.14693L4.71506 11.5L13.0682 19.8532C13.3756 20.1714 13.5457 20.5977 13.5418 21.0402C13.538 21.4826 13.3605 21.9059 13.0476 22.2187C12.7347 22.5316 12.3115 22.7091 11.869 22.7129C11.4266 22.7168 11.0003 22.5467 10.6821 22.2393L1.13587 12.6931C0.819511 12.3767 0.641791 11.9475 0.641791 11.5C0.641791 11.0526 0.819511 10.6234 1.13587 10.307L10.6821 0.760801C10.9985 0.444443 11.4277 0.266724 11.8751 0.266724C12.3226 0.266724 12.7517 0.444443 13.0682 0.760801V0.760801Z" fill="#A0BBD7"/>
</svg>

