<svg width="15" height="10" viewBox="0 0 15 10" fill="none" xmlns="http://www.w3.org/2000/svg">
<path d="M0.858798 0.954629C1.05647 0.743724 1.32454 0.625244 1.60405 0.625244C1.88356 0.625244 2.15163 0.743724 2.3493 0.954629L7.56712 6.52338L12.7849 0.954629C12.9837 0.749701 13.25 0.636307 13.5264 0.63887C13.8028 0.641434 14.0672 0.759749 14.2626 0.968333C14.458 1.17692 14.5689 1.45908 14.5713 1.75405C14.5737 2.04902 14.4675 2.3332 14.2754 2.54538L8.31237 8.9095C8.1147 9.12041 7.84663 9.23889 7.56712 9.23889C7.28761 9.23889 7.01954 9.12041 6.82187 8.9095L0.858798 2.54538C0.661184 2.33441 0.550171 2.04831 0.550171 1.75C0.550171 1.45169 0.661184 1.1656 0.858798 0.954629Z" fill="#304057"/>
</svg>
