<svg width="14" height="23" viewBox="0 0 14 23" fill="none" xmlns="http://www.w3.org/2000/svg">
    <path d="M0.931821 22.2392C0.615464 21.9227 0.437744 21.4936 0.437744 21.0461C0.437744 20.5987 0.615464 20.1695 0.931821 19.8531L9.28494 11.5L0.931821 3.14683C0.62443 2.82856 0.454339 2.40229 0.458183 1.95984C0.462028 1.51738 0.639501 1.09413 0.952377 0.781255C1.26525 0.468379 1.6885 0.290909 2.13096 0.287064C2.57341 0.283219 2.99968 0.453309 3.31795 0.760701L12.8641 10.3069C13.1805 10.6233 13.3582 11.0525 13.3582 11.5C13.3582 11.9474 13.1805 12.3766 12.8641 12.693L3.31795 22.2392C3.00149 22.5556 2.57235 22.7333 2.12488 22.7333C1.67742 22.7333 1.24827 22.5556 0.931821 22.2392V22.2392Z" fill="#304057"/>
</svg>
