<svg width="16" height="10" viewBox="0 0 16 10" fill="none" xmlns="http://www.w3.org/2000/svg">
    <path d="M0.840493 0.954629C1.05146 0.743724 1.33756 0.625244 1.63587 0.625244C1.93418 0.625244 2.22027 0.743724 2.43124 0.954629L7.99999 6.52338L13.5687 0.954629C13.7809 0.749701 14.0651 0.636307 14.3601 0.63887C14.655 0.641434 14.9372 0.759749 15.1458 0.968333C15.3544 1.17692 15.4727 1.45908 15.4752 1.75405C15.4778 2.04902 15.3644 2.3332 15.1595 2.54538L8.79537 8.9095C8.5844 9.12041 8.2983 9.23889 7.99999 9.23889C7.70168 9.23889 7.41559 9.12041 7.20462 8.9095L0.840493 2.54538C0.629588 2.33441 0.511108 2.04831 0.511108 1.75C0.511108 1.45169 0.629588 1.1656 0.840493 0.954629Z" fill="#6D6D6D"/>
</svg>
