<svg width="15" height="10" viewBox="0 0 15 10" fill="none" xmlns="http://www.w3.org/2000/svg">
    <path d="M0.808434 9.04537C1.00677 9.25628 1.27572 9.37476 1.55617 9.37476C1.83661 9.37476 2.10557 9.25628 2.3039 9.04537L7.53908 3.47662L12.7743 9.04537C12.9737 9.2503 13.2409 9.36369 13.5182 9.36113C13.7955 9.35857 14.0607 9.24025 14.2568 9.03167C14.4529 8.82308 14.5642 8.54092 14.5666 8.24595C14.569 7.95098 14.4624 7.6668 14.2697 7.45462L8.28681 1.0905C8.08848 0.879595 7.81952 0.761114 7.53908 0.761114C7.25864 0.761114 6.98968 0.879595 6.79135 1.0905L0.808434 7.45462C0.610162 7.66559 0.498779 7.95169 0.498779 8.25C0.498779 8.54831 0.610162 8.8344 0.808434 9.04537Z" fill="#304057" fill-opacity="0.26"/>
</svg>